# xmcd CD database file
#
# Track frame offsets:
#	150
#	13455
#	28573
#	40044
#	70558
#	86139
#	101212
#	117391
#	137486
#	148827
#
# Disc length: 2263 seconds
#
# Revision: 1
# Processed by: cddbd v1.5.2PL0 Copyright (c) Steve Scherf et al.
# Submitted via: CDex 1.51
#
DISCID=8b08d50a
DTITLE=Tscheky and The Blues Kings - Hit The Ground Running
DYEAR=2016
DGENRE=Blues
TTITLE0=Party Time
TTITLE1=So Glad You're Mine
TTITLE2=Honey Bee
TTITLE3=The Sky Is Cryin'
TTITLE4=Smile for Me
TTITLE5=The Best Time With You
TTITLE6=Cadillac Shuffle
TTITLE7=Boogie Woogie Stomp
TTITLE8=Crossroads
TTITLE9=You Did All Wrong
EXTD=YEAR: 2016
EXTT0=
EXTT1=
EXTT2=
EXTT3=
EXTT4=
EXTT5=
EXTT6=
EXTT7=
EXTT8=
EXTT9=
PLAYORDER=
